<?xml version="1.0" encoding="utf-8"?>
<!-- Generator: Adobe Illustrator 19.2.1, SVG Export Plug-In . SVG Version: 6.00 Build 0)  -->
<!DOCTYPE svg PUBLIC "-//W3C//DTD SVG 1.1 Tiny//EN" "http://www.w3.org/Graphics/SVG/1.1/DTD/svg11-tiny.dtd" [
	<!ENTITY ns_extend "http://ns.adobe.com/Extensibility/1.0/">
	<!ENTITY ns_ai "http://ns.adobe.com/AdobeIllustrator/10.0/">
	<!ENTITY ns_graphs "http://ns.adobe.com/Graphs/1.0/">
	<!ENTITY ns_vars "http://ns.adobe.com/Variables/1.0/">
	<!ENTITY ns_imrep "http://ns.adobe.com/ImageReplacement/1.0/">
	<!ENTITY ns_sfw "http://ns.adobe.com/SaveForWeb/1.0/">
	<!ENTITY ns_custom "http://ns.adobe.com/GenericCustomNamespace/1.0/">
	<!ENTITY ns_adobe_xpath "http://ns.adobe.com/XPath/1.0/">
]>
<svg version="1.1" baseProfile="tiny" id="Layer_1" xmlns:x="&ns_extend;" xmlns:i="&ns_ai;" xmlns:graph="&ns_graphs;"
	 xmlns="http://www.w3.org/2000/svg" xmlns:xlink="http://www.w3.org/1999/xlink" x="0px" y="0px" viewBox="0 0 300 100"
	 xml:space="preserve">
<metadata>
	<sfw  xmlns="&ns_sfw;">
		<slices></slices>
		<sliceSourceBounds  bottomLeftOrigin="true" height="87.932" width="285.442" x="7.052" y="-93.133"></sliceSourceBounds>
	</sfw>
</metadata>
<g>
	<path fill="#515252" stroke="#515252" stroke-width="0.4606" stroke-miterlimit="10" d="M36.526,27.59
		c19.066,0,28.856,15.33,28.856,32.592v1.288H11.662c0.388,15.201,10.306,27.955,26.152,27.955c8.761,0,15.846-3.221,21.643-9.404
		l2.319,2.448c-6.314,6.569-13.527,10.434-23.962,10.434c-18.035,0-30.532-13.783-30.532-32.721
		C7.282,42.147,19.779,27.59,36.526,27.59z M11.662,57.992H61.26c0-11.98-7.859-26.924-24.864-26.924
		C20.423,31.067,12.05,45.753,11.662,57.992z"/>
	<path fill="#515252" stroke="#515252" stroke-width="0.4606" stroke-miterlimit="10" d="M110.215,27.59
		c10.178,0,15.974,3.864,21.255,10.435l-2.833,2.319c-5.024-6.828-10.95-9.276-18.165-9.276c-15.974,0-25.378,12.883-25.378,29.114
		s9.404,29.243,25.378,29.243c7.215,0,13.141-2.577,18.165-9.404l2.833,2.448c-5.282,6.569-11.077,10.434-21.255,10.434
		c-18.035,0-29.372-14.814-29.372-32.721C80.843,42.276,92.18,27.59,110.215,27.59z"/>
	<path fill="#515252" stroke="#515252" stroke-width="0.4606" stroke-miterlimit="10" d="M189.701,47.686
		c0-13.011-6.439-16.618-16.101-16.618c-8.503,0-17.649,5.54-22.029,11.723v48.567h-3.864V5.432h3.864v33.495
		c4.638-5.669,13.912-11.336,22.545-11.336c12.367,0,19.452,5.411,19.452,20.096v43.671h-3.867V47.686z"/>
</g>
<path fill="#515252" stroke="#515252" stroke-width="0.4606" stroke-miterlimit="10" d="M258.432,81.25
	c-5.069,4.461-11.696,7.191-18.963,7.191c-15.863,0-28.766-12.905-28.766-28.768c0-15.862,12.903-28.767,28.766-28.767
	c7.096,0,13.588,2.595,18.61,6.87c0.696-1.037,1.441-2.043,2.23-3.015c-5.647-4.732-12.913-7.591-20.84-7.591
	c-17.923,0-32.505,14.581-32.505,32.504s14.582,32.505,32.505,32.505c8.055,0,15.419-2.962,21.104-7.832
	C259.816,83.348,259.102,82.317,258.432,81.25z"/>
<g>
	<linearGradient id="SVGID_1_" gradientUnits="userSpaceOnUse" x1="276.0059" y1="86.2393" x2="276.0059" y2="33.1082">
		<stop  offset="0" style="stop-color:#D6DE23"/>
		<stop  offset="0.1368" style="stop-color:#A5D053"/>
		<stop  offset="0.2812" style="stop-color:#78C47D"/>
		<stop  offset="0.4271" style="stop-color:#53B9A1"/>
		<stop  offset="0.5722" style="stop-color:#37B1BD"/>
		<stop  offset="0.7165" style="stop-color:#22ACD0"/>
		<stop  offset="0.8595" style="stop-color:#16A8DC"/>
		<stop  offset="1" style="stop-color:#12A7E0"/>
	</linearGradient>
	<path fill="url(#SVGID_1_)" d="M271.755,86.239c-0.67-0.046-1.229-0.519-1.571-1.327c-0.368-0.869-0.251-1.699,0.266-2.438
		c0.396-0.567,0.839-1.09,1.239-1.653c3.646-5.132,5.808-11.004,6.355-17.628c0.818-9.921-1.621-18.625-7.395-26.031
		c-0.605-0.776-0.869-1.624-0.504-2.627c0.57-1.567,2.147-1.928,3.107-0.654c1.035,1.372,2.055,2.773,2.961,4.261
		c3.21,5.276,5.138,11.146,5.661,17.58c0.925,11.369-1.98,21.28-8.585,29.731C272.842,86.024,272.419,86.247,271.755,86.239z"/>
	<linearGradient id="SVGID_2_" gradientUnits="userSpaceOnUse" x1="285.1109" y1="92.1663" x2="285.1109" y2="27.1812">
		<stop  offset="0" style="stop-color:#D6DE23"/>
		<stop  offset="0.1368" style="stop-color:#A5D053"/>
		<stop  offset="0.2812" style="stop-color:#78C47D"/>
		<stop  offset="0.4271" style="stop-color:#53B9A1"/>
		<stop  offset="0.5722" style="stop-color:#37B1BD"/>
		<stop  offset="0.7165" style="stop-color:#22ACD0"/>
		<stop  offset="0.8595" style="stop-color:#16A8DC"/>
		<stop  offset="1" style="stop-color:#12A7E0"/>
	</linearGradient>
	<path fill="url(#SVGID_2_)" d="M279.912,92.166c-0.82-0.056-1.503-0.635-1.922-1.623c-0.45-1.062-0.307-2.077,0.325-2.982
		c0.484-0.694,1.026-1.333,1.516-2.022c4.46-6.276,7.104-13.459,7.773-21.561c1.001-12.134-1.983-22.78-9.045-31.839
		c-0.74-0.949-1.063-1.986-0.617-3.213c0.697-1.917,2.626-2.358,3.801-0.799c1.266,1.679,2.514,3.391,3.621,5.211
		c3.926,6.453,6.284,13.633,6.924,21.502c1.131,13.905-2.422,26.028-10.501,36.364C281.241,91.903,280.723,92.175,279.912,92.166z"
		/>
	<linearGradient id="SVGID_3_" gradientUnits="userSpaceOnUse" x1="267.5647" y1="79.1496" x2="267.5647" y2="40.2193">
		<stop  offset="0" style="stop-color:#D6DE23"/>
		<stop  offset="0.1368" style="stop-color:#A5D053"/>
		<stop  offset="0.2812" style="stop-color:#78C47D"/>
		<stop  offset="0.4271" style="stop-color:#53B9A1"/>
		<stop  offset="0.5722" style="stop-color:#37B1BD"/>
		<stop  offset="0.7165" style="stop-color:#22ACD0"/>
		<stop  offset="0.8595" style="stop-color:#16A8DC"/>
		<stop  offset="1" style="stop-color:#12A7E0"/>
	</linearGradient>
	<path fill="url(#SVGID_3_)" d="M272.467,60.612c-0.083,6.268-2.125,12.563-6.507,17.756c-0.721,0.855-1.519,1.004-2.266,0.467
		c-0.788-0.566-1.219-1.747-0.932-2.701c0.104-0.347,0.3-0.686,0.522-0.952c4.158-4.982,5.752-10.984,5.239-17.809
		c-0.382-5.091-2.131-9.469-5.198-13.138c-0.78-0.933-0.867-1.954-0.285-2.974c0.723-1.266,1.954-1.401,2.904-0.292
		c2.966,3.463,4.91,7.59,5.886,12.335C272.261,55.396,272.463,57.518,272.467,60.612z"/>
</g>
<g>
</g>
<g>
</g>
<g>
</g>
<g>
</g>
<g>
</g>
<g>
</g>
</svg>
